<svg width="29" height="27" viewBox="0 0 29 27" fill="none" xmlns="http://www.w3.org/2000/svg">
<path d="M2.12381 24.985H26.9032C26.839 24.5618 26.801 24.1494 26.7114 23.748C25.7649 19.5004 23.2177 16.5307 19.0698 14.8391C18.9382 14.7852 18.8395 14.7971 18.7185 14.8664C13.769 17.6961 7.43759 14.9403 6.35939 9.48915C5.50741 5.18368 8.43603 1.00212 12.9 0.152231C17.5108 -0.725315 21.9857 2.28536 22.6861 6.7557C23.0632 9.16396 22.408 11.3062 20.7965 13.1792C20.7603 13.2227 20.724 13.2689 20.6798 13.3249C20.9651 13.4684 21.2417 13.5961 21.5068 13.7449C25.5748 16.0037 28.0325 19.3588 28.8196 23.8295C28.9418 24.5219 28.9646 25.2325 28.9987 25.9364C29.027 26.5525 28.5926 26.9697 27.9531 26.9988C27.8926 27.0016 27.832 26.9988 27.7719 26.9988C18.9258 26.9988 10.0798 26.9988 1.23377 26.9988C1.08283 27.0026 0.931929 26.9901 0.783853 26.9617C0.315449 26.8587 -0.00395104 26.4544 3.69252e-05 25.9728C0.02614 22.8484 1.00911 20.0364 2.94895 17.5369C3.54449 16.7711 4.22356 16.0693 4.97448 15.4436C5.15678 15.2866 7 13.9941 8.31211 13.3249C8.55637 13.3196 8.81063 13.0302 9 13.1792C9.39372 13.4883 10.2563 14.0817 10 14.5C8.5 15.1922 6.36437 16.9272 6.24048 17.029C3.93367 19.0151 2.4736 21.7581 2.14375 24.7253C2.13287 24.8051 2.1307 24.8877 2.12381 24.985ZM8.28956 8.00219C8.295 11.317 11.0811 14.0015 14.5108 13.9941C17.9448 13.9868 20.7255 11.2932 20.7142 7.98468C20.7105 6.39641 20.0542 4.87445 18.8895 3.75284C17.7248 2.63124 16.1467 2.00162 14.5017 2.00218C11.0695 2.00218 8.28376 4.69293 8.28956 8.00219Z" fill="#3B3B3B"/>
</svg>
