<svg width="30" height="27" viewBox="0 0 30 27" fill="none" xmlns="http://www.w3.org/2000/svg">
<path d="M5.43333 13.9255V12.8255H4.33333H1.84791L14.6081 1.23989C14.8135 1.05337 15.1865 1.05337 15.3919 1.23989L16.1314 0.425493L15.3919 1.23989L28.1521 12.8255H25.6667H24.5667V13.9255V25.5473C24.5667 25.6082 24.5417 25.6846 24.4586 25.7601C24.3737 25.8372 24.2381 25.9 24.0667 25.9H18.2333V18.8309V17.7309H17.1333H12.8667H11.7667V18.8309V25.9H5.93333C5.76187 25.9 5.62628 25.8372 5.5414 25.7601C5.45825 25.6846 5.43333 25.6082 5.43333 25.5473V19.7364V13.9255Z" stroke="#3B3B3B" stroke-width="2.2"/>
</svg>
